<mxfile host="app.diagrams.net" modified="2024-06-03T20:40:54.242Z" agent="Mozilla/5.0 (Macintosh; Intel Mac OS X 10_15_7) AppleWebKit/537.36 (KHTML, like Gecko) Chrome/125.0.0.0 Safari/537.36" etag="EGduK-kacJpPP3HHxrux" version="24.4.13" type="github" pages="2">
  <diagram name="Diagramme de cas d&#39;utilisation" id="KO8eccivkffMantd-eID">
    <mxGraphModel dx="2954" dy="1161" grid="1" gridSize="10" guides="1" tooltips="1" connect="1" arrows="1" fold="1" page="1" pageScale="1" pageWidth="1169" pageHeight="827" math="0" shadow="0">
      <root>
        <mxCell id="0" />
        <mxCell id="1" parent="0" />
      </root>
    </mxGraphModel>
  </diagram>
  <diagram name="Diagramme de classes" id="IZmtVSQumiPWv-o8FATY">
    <mxGraphModel grid="0" page="0" gridSize="10" guides="1" tooltips="1" connect="1" arrows="1" fold="1" pageScale="1" pageWidth="827" pageHeight="1169" background="none" math="0" shadow="0">
      <root>
        <mxCell id="0" />
        <mxCell id="1" parent="0" />
        <mxCell id="node25" value="&lt;p style=&quot;margin:0px;margin-top:4px;text-align:center;&quot;&gt;&lt;b&gt;ChildAlertController&lt;/b&gt;&lt;/p&gt;&lt;hr size=&quot;1&quot;/&gt;&lt;p style=&quot;margin:0 0 0 4px;line-height:1.6;&quot;&gt;+ ChildAlertController(PersonService): &lt;/p&gt;&lt;hr size=&quot;1&quot;/&gt;&lt;p style=&quot;margin:0 0 0 4px;line-height:1.6;&quot;&gt;+ findChildrenByAddress(String): ResponseEntity&amp;lt;List&amp;lt;ChildDto&amp;gt;&amp;gt;&lt;/p&gt;" style="verticalAlign=top;align=left;overflow=fill;fontSize=14;fontFamily=Helvetica;html=1;rounded=0;shadow=0;comic=0;labelBackgroundColor=none;strokeWidth=1;" vertex="1" parent="1">
          <mxGeometry x="84" y="95" width="447" height="95" as="geometry" />
        </mxCell>
        <mxCell id="node18" value="&lt;p style=&quot;margin:0px;margin-top:4px;text-align:center;&quot;&gt;&lt;b&gt;CommunityEmailController&lt;/b&gt;&lt;/p&gt;&lt;hr size=&quot;1&quot;/&gt;&lt;p style=&quot;margin:0 0 0 4px;line-height:1.6;&quot;&gt;+ CommunityEmailController(PersonService): &lt;/p&gt;&lt;hr size=&quot;1&quot;/&gt;&lt;p style=&quot;margin:0 0 0 4px;line-height:1.6;&quot;&gt;+ findEmails(String): ResponseEntity&amp;lt;TreeSet&amp;lt;String&amp;gt;&amp;gt;&lt;/p&gt;" style="verticalAlign=top;align=left;overflow=fill;fontSize=14;fontFamily=Helvetica;html=1;rounded=0;shadow=0;comic=0;labelBackgroundColor=none;strokeWidth=1;" vertex="1" parent="1">
          <mxGeometry x="-582" y="155" width="378" height="95" as="geometry" />
        </mxCell>
        <mxCell id="node13" value="&lt;p style=&quot;margin:0px;margin-top:4px;text-align:center;&quot;&gt;&lt;b&gt;DataLoadJson&lt;/b&gt;&lt;/p&gt;&lt;hr size=&quot;1&quot;/&gt;&lt;p style=&quot;margin:0 0 0 4px;line-height:1.6;&quot;&gt;+ DataLoadJson(Environment): &lt;/p&gt;&lt;hr size=&quot;1&quot;/&gt;&lt;p style=&quot;margin:0 0 0 4px;line-height:1.6;&quot;&gt;+ init(): void&lt;/p&gt;" style="verticalAlign=top;align=left;overflow=fill;fontSize=14;fontFamily=Helvetica;html=1;rounded=0;shadow=0;comic=0;labelBackgroundColor=none;strokeWidth=1;" vertex="1" parent="1">
          <mxGeometry x="2213" y="1255" width="228" height="95" as="geometry" />
        </mxCell>
        <mxCell id="node14" value="&lt;p style=&quot;margin:0px;margin-top:4px;text-align:center;&quot;&gt;&lt;b&gt;FireController&lt;/b&gt;&lt;/p&gt;&lt;hr size=&quot;1&quot;/&gt;&lt;p style=&quot;margin:0 0 0 4px;line-height:1.6;&quot;&gt;+ FireController(PersonService, FireStationService, PersonMapper): &lt;/p&gt;&lt;hr size=&quot;1&quot;/&gt;&lt;p style=&quot;margin:0 0 0 4px;line-height:1.6;&quot;&gt;+ findPersonsWithMedicalHistory(String): ResponseEntity&amp;lt;PersonsWithMedicalHistoryByStationDto&amp;gt;&lt;/p&gt;" style="verticalAlign=top;align=left;overflow=fill;fontSize=14;fontFamily=Helvetica;html=1;rounded=0;shadow=0;comic=0;labelBackgroundColor=none;strokeWidth=1;" vertex="1" parent="1">
          <mxGeometry x="-21" y="455" width="656" height="95" as="geometry" />
        </mxCell>
        <mxCell id="node0" value="&lt;p style=&quot;margin:0px;margin-top:4px;text-align:center;&quot;&gt;&lt;b&gt;FireStationController&lt;/b&gt;&lt;/p&gt;&lt;hr size=&quot;1&quot;/&gt;&lt;p style=&quot;margin:0 0 0 4px;line-height:1.6;&quot;&gt;+ FireStationController(FireStationService, PersonService): &lt;/p&gt;&lt;hr size=&quot;1&quot;/&gt;&lt;p style=&quot;margin:0 0 0 4px;line-height:1.6;&quot;&gt;+ createFireStation(FireStationDto): ResponseEntity&amp;lt;FireStationDto&amp;gt;&lt;br/&gt;+ deleteFireStation(FireStationDto): ResponseEntity&amp;lt;GenericResponseDto&amp;gt;&lt;br/&gt;+ findPersonsCoveredByFireStation(int): ResponseEntity&amp;lt;PersonsWithAgeRepartitionDto&amp;gt;&lt;br/&gt;+ updateFireStation(FireStationDto): ResponseEntity&amp;lt;FireStationDto&amp;gt;&lt;/p&gt;&lt;hr size=&quot;1&quot;/&gt;&lt;p style=&quot;margin:0 0 0 4px;line-height:1.6;&quot;&gt; fireStations: ResponseEntity&amp;lt;List&amp;lt;FireStationDto&amp;gt;&amp;gt;&lt;/p&gt;" style="verticalAlign=top;align=left;overflow=fill;fontSize=14;fontFamily=Helvetica;html=1;rounded=0;shadow=0;comic=0;labelBackgroundColor=none;strokeWidth=1;" vertex="1" parent="1">
          <mxGeometry x="-688" y="287" width="590" height="185" as="geometry" />
        </mxCell>
        <mxCell id="node21" value="&lt;p style=&quot;margin:0px;margin-top:4px;text-align:center;&quot;&gt;&lt;b&gt;FireStationEntity&lt;/b&gt;&lt;/p&gt;&lt;hr size=&quot;1&quot;/&gt;&lt;p style=&quot;margin:0 0 0 4px;line-height:1.6;&quot;&gt;~ FireStationEntity(String, int): &lt;/p&gt;&lt;hr size=&quot;1&quot;/&gt;&lt;p style=&quot;margin:0 0 0 4px;line-height:1.6;&quot;&gt;- address: String&lt;br/&gt;- station: int&lt;/p&gt;&lt;hr size=&quot;1&quot;/&gt;&lt;p style=&quot;margin:0 0 0 4px;line-height:1.6;&quot;&gt;+ builder(): FireStationEntityBuilder&lt;/p&gt;&lt;hr size=&quot;1&quot;/&gt;&lt;p style=&quot;margin:0 0 0 4px;line-height:1.6;&quot;&gt; address: String&lt;br/&gt; station: int&lt;/p&gt;" style="verticalAlign=top;align=left;overflow=fill;fontSize=14;fontFamily=Helvetica;html=1;rounded=0;shadow=0;comic=0;labelBackgroundColor=none;strokeWidth=1;" vertex="1" parent="1">
          <mxGeometry x="3150" y="1267" width="250" height="186" as="geometry" />
        </mxCell>
        <mxCell id="node12" value="&lt;p style=&quot;margin:0px;margin-top:4px;text-align:center;&quot;&gt;&lt;b&gt;FireStationEntityBuilder&lt;/b&gt;&lt;/p&gt;&lt;hr size=&quot;1&quot;/&gt;&lt;p style=&quot;margin:0 0 0 4px;line-height:1.6;&quot;&gt;~ FireStationEntityBuilder(): &lt;/p&gt;&lt;hr size=&quot;1&quot;/&gt;&lt;p style=&quot;margin:0 0 0 4px;line-height:1.6;&quot;&gt;+ address(String): FireStationEntityBuilder&lt;br/&gt;+ build(): FireStationEntity&lt;br/&gt;+ station(int): FireStationEntityBuilder&lt;br/&gt;+ toString(): String&lt;/p&gt;" style="verticalAlign=top;align=left;overflow=fill;fontSize=14;fontFamily=Helvetica;html=1;rounded=0;shadow=0;comic=0;labelBackgroundColor=none;strokeWidth=1;" vertex="1" parent="1">
          <mxGeometry x="1660" y="1279" width="294" height="160" as="geometry" />
        </mxCell>
        <mxCell id="node4" value="&lt;p style=&quot;margin:0px;margin-top:4px;text-align:center;&quot;&gt;&lt;i&gt;&amp;lt;&amp;lt;interface&amp;gt;&amp;gt;&lt;/i&gt;&lt;br/&gt;&lt;b&gt;FireStationRepository&lt;/b&gt;&lt;/p&gt;&lt;hr size=&quot;1&quot;/&gt;&lt;p style=&quot;margin:0 0 0 4px;line-height:1.6;&quot;&gt;+ delete(FireStationDto): boolean&lt;br/&gt;+ findAddressesByStation(int): List&amp;lt;String&amp;gt;&lt;br/&gt;+ findAll(): List&amp;lt;FireStationDto&amp;gt;&lt;br/&gt;+ findFireStation(String): FireStationDto&lt;br/&gt;+ save(FireStationDto): FireStationDto&lt;br/&gt;+ update(FireStationDto): FireStationDto&lt;/p&gt;" style="verticalAlign=top;align=left;overflow=fill;fontSize=14;fontFamily=Helvetica;html=1;rounded=0;shadow=0;comic=0;labelBackgroundColor=none;strokeWidth=1;" vertex="1" parent="1">
          <mxGeometry x="796" y="1228" width="302" height="183" as="geometry" />
        </mxCell>
        <mxCell id="node22" value="&lt;p style=&quot;margin:0px;margin-top:4px;text-align:center;&quot;&gt;&lt;b&gt;FireStationRepositoryImpl&lt;/b&gt;&lt;/p&gt;&lt;hr size=&quot;1&quot;/&gt;&lt;p style=&quot;margin:0 0 0 4px;line-height:1.6;&quot;&gt;+ FireStationRepositoryImpl(FireStationMapper): &lt;/p&gt;&lt;hr size=&quot;1&quot;/&gt;&lt;p style=&quot;margin:0 0 0 4px;line-height:1.6;&quot;&gt;+ delete(FireStationDto): boolean&lt;br/&gt;+ findAddressesByStation(int): List&amp;lt;String&amp;gt;&lt;br/&gt;+ findAll(): List&amp;lt;FireStationDto&amp;gt;&lt;br/&gt;+ findFireStation(String): FireStationDto&lt;br/&gt;+ save(FireStationDto): FireStationDto&lt;br/&gt;+ update(FireStationDto): FireStationDto&lt;/p&gt;" style="verticalAlign=top;align=left;overflow=fill;fontSize=14;fontFamily=Helvetica;html=1;rounded=0;shadow=0;comic=0;labelBackgroundColor=none;strokeWidth=1;" vertex="1" parent="1">
          <mxGeometry x="140" y="1255" width="335" height="208" as="geometry" />
        </mxCell>
        <mxCell id="node27" value="&lt;p style=&quot;margin:0px;margin-top:4px;text-align:center;&quot;&gt;&lt;i&gt;&amp;lt;&amp;lt;interface&amp;gt;&amp;gt;&lt;/i&gt;&lt;br/&gt;&lt;b&gt;FireStationService&lt;/b&gt;&lt;/p&gt;&lt;hr size=&quot;1&quot;/&gt;&lt;p style=&quot;margin:0 0 0 4px;line-height:1.6;&quot;&gt;+ delete(FireStationDto): GenericResponseDto&lt;br/&gt;+ findAddressesByStation(int): List&amp;lt;String&amp;gt;&lt;br/&gt;+ findAll(): List&amp;lt;FireStationDto&amp;gt;&lt;br/&gt;+ findStation(String): int&lt;br/&gt;+ save(FireStationDto): FireStationDto&lt;br/&gt;+ update(FireStationDto): FireStationDto&lt;/p&gt;" style="verticalAlign=top;align=left;overflow=fill;fontSize=14;fontFamily=Helvetica;html=1;rounded=0;shadow=0;comic=0;labelBackgroundColor=none;strokeWidth=1;" vertex="1" parent="1">
          <mxGeometry x="787" y="868" width="320" height="183" as="geometry" />
        </mxCell>
        <mxCell id="node3" value="&lt;p style=&quot;margin:0px;margin-top:4px;text-align:center;&quot;&gt;&lt;b&gt;FireStationServiceImpl&lt;/b&gt;&lt;/p&gt;&lt;hr size=&quot;1&quot;/&gt;&lt;p style=&quot;margin:0 0 0 4px;line-height:1.6;&quot;&gt;+ FireStationServiceImpl(FireStationRepository): &lt;/p&gt;&lt;hr size=&quot;1&quot;/&gt;&lt;p style=&quot;margin:0 0 0 4px;line-height:1.6;&quot;&gt;+ delete(FireStationDto): GenericResponseDto&lt;br/&gt;+ findAddressesByStation(int): List&amp;lt;String&amp;gt;&lt;br/&gt;+ findAll(): List&amp;lt;FireStationDto&amp;gt;&lt;br/&gt;+ findStation(String): int&lt;br/&gt;+ save(FireStationDto): FireStationDto&lt;br/&gt;+ update(FireStationDto): FireStationDto&lt;/p&gt;" style="verticalAlign=top;align=left;overflow=fill;fontSize=14;fontFamily=Helvetica;html=1;rounded=0;shadow=0;comic=0;labelBackgroundColor=none;strokeWidth=1;" vertex="1" parent="1">
          <mxGeometry x="-560" y="1075" width="334" height="208" as="geometry" />
        </mxCell>
        <mxCell id="node5" value="&lt;p style=&quot;margin:0px;margin-top:4px;text-align:center;&quot;&gt;&lt;b&gt;FloodController&lt;/b&gt;&lt;/p&gt;&lt;hr size=&quot;1&quot;/&gt;&lt;p style=&quot;margin:0 0 0 4px;line-height:1.6;&quot;&gt;+ FloodController(PersonService, FireStationService, PersonMapper): &lt;/p&gt;&lt;hr size=&quot;1&quot;/&gt;&lt;p style=&quot;margin:0 0 0 4px;line-height:1.6;&quot;&gt;+ findPersonsWithMedicalHistory(int[]): ResponseEntity&amp;lt;Map&amp;lt;String, List&amp;lt;PersonWithoutAddressAndEmailDto&amp;gt;&amp;gt;&amp;gt;&lt;/p&gt;" style="verticalAlign=top;align=left;overflow=fill;fontSize=14;fontFamily=Helvetica;html=1;rounded=0;shadow=0;comic=0;labelBackgroundColor=none;strokeWidth=1;" vertex="1" parent="1">
          <mxGeometry x="-64" y="214" width="742" height="95" as="geometry" />
        </mxCell>
        <mxCell id="node28" value="&lt;p style=&quot;margin:0px;margin-top:4px;text-align:center;&quot;&gt;&lt;i&gt;&amp;lt;&amp;lt;record&amp;gt;&amp;gt;&lt;/i&gt;&lt;br/&gt;&lt;b&gt;JsonDataModel&lt;/b&gt;&lt;/p&gt;&lt;hr size=&quot;1&quot;/&gt;&lt;p style=&quot;margin:0 0 0 4px;line-height:1.6;&quot;&gt;+ JsonDataModel(List&amp;lt;PersonEntity&amp;gt;, List&amp;lt;FireStationEntity&amp;gt;, List&amp;lt;MedicalRecordEntity&amp;gt;): &lt;/p&gt;&lt;hr size=&quot;1&quot;/&gt;&lt;p style=&quot;margin:0 0 0 4px;line-height:1.6;&quot;&gt;+ firestations(): List&amp;lt;FireStationEntity&amp;gt;&lt;br/&gt;+ medicalrecords(): List&amp;lt;MedicalRecordEntity&amp;gt;&lt;br/&gt;+ persons(): List&amp;lt;PersonEntity&amp;gt;&lt;/p&gt;" style="verticalAlign=top;align=left;overflow=fill;fontSize=14;fontFamily=Helvetica;html=1;rounded=0;shadow=0;comic=0;labelBackgroundColor=none;strokeWidth=1;" vertex="1" parent="1">
          <mxGeometry x="1950" y="1468" width="580" height="170" as="geometry" />
        </mxCell>
        <mxCell id="node24" value="&lt;p style=&quot;margin:0px;margin-top:4px;text-align:center;&quot;&gt;&lt;b&gt;MedicalRecordController&lt;/b&gt;&lt;/p&gt;&lt;hr size=&quot;1&quot;/&gt;&lt;p style=&quot;margin:0 0 0 4px;line-height:1.6;&quot;&gt;+ MedicalRecordController(MedicalRecordService): &lt;/p&gt;&lt;hr size=&quot;1&quot;/&gt;&lt;p style=&quot;margin:0 0 0 4px;line-height:1.6;&quot;&gt;+ createMedicalRecord(MedicalRecordDto): ResponseEntity&amp;lt;MedicalRecordDto&amp;gt;&lt;br/&gt;+ deleteMedicalRecord(String, String): ResponseEntity&amp;lt;GenericResponseDto&amp;gt;&lt;br/&gt;+ findMedicalRecords(): ResponseEntity&amp;lt;List&amp;lt;MedicalRecordDto&amp;gt;&amp;gt;&lt;br/&gt;+ updateMedicalRecord(MedicalRecordDto): ResponseEntity&amp;lt;MedicalRecordDto&amp;gt;&lt;/p&gt;" style="verticalAlign=top;align=left;overflow=fill;fontSize=14;fontFamily=Helvetica;html=1;rounded=0;shadow=0;comic=0;labelBackgroundColor=none;strokeWidth=1;" vertex="1" parent="1">
          <mxGeometry x="-662" y="1719" width="538" height="160" as="geometry" />
        </mxCell>
        <mxCell id="node1" value="&lt;p style=&quot;margin:0px;margin-top:4px;text-align:center;&quot;&gt;&lt;b&gt;MedicalRecordEntity&lt;/b&gt;&lt;/p&gt;&lt;hr size=&quot;1&quot;/&gt;&lt;p style=&quot;margin:0 0 0 4px;line-height:1.6;&quot;&gt;~ MedicalRecordEntity(String, String, String, List&amp;lt;String&amp;gt;, List&amp;lt;String&amp;gt;): &lt;/p&gt;&lt;hr size=&quot;1&quot;/&gt;&lt;p style=&quot;margin:0 0 0 4px;line-height:1.6;&quot;&gt;- allergies: List&amp;lt;String&amp;gt;&lt;br/&gt;- birthdate: String&lt;br/&gt;- firstName: String&lt;br/&gt;- lastName: String&lt;br/&gt;- medications: List&amp;lt;String&amp;gt;&lt;/p&gt;&lt;hr size=&quot;1&quot;/&gt;&lt;p style=&quot;margin:0 0 0 4px;line-height:1.6;&quot;&gt;+ builder(): MedicalRecordEntityBuilder&lt;/p&gt;&lt;hr size=&quot;1&quot;/&gt;&lt;p style=&quot;margin:0 0 0 4px;line-height:1.6;&quot;&gt; allergies: List&amp;lt;String&amp;gt;&lt;br/&gt; birthdate: String&lt;br/&gt; firstName: String&lt;br/&gt; lastName: String&lt;br/&gt; medications: List&amp;lt;String&amp;gt;&lt;/p&gt;" style="verticalAlign=top;align=left;overflow=fill;fontSize=14;fontFamily=Helvetica;html=1;rounded=0;shadow=0;comic=0;labelBackgroundColor=none;strokeWidth=1;" vertex="1" parent="1">
          <mxGeometry x="2645" y="954" width="465" height="330" as="geometry" />
        </mxCell>
        <mxCell id="node2" value="&lt;p style=&quot;margin:0px;margin-top:4px;text-align:center;&quot;&gt;&lt;b&gt;MedicalRecordEntityBuilder&lt;/b&gt;&lt;/p&gt;&lt;hr size=&quot;1&quot;/&gt;&lt;p style=&quot;margin:0 0 0 4px;line-height:1.6;&quot;&gt;~ MedicalRecordEntityBuilder(): &lt;/p&gt;&lt;hr size=&quot;1&quot;/&gt;&lt;p style=&quot;margin:0 0 0 4px;line-height:1.6;&quot;&gt;+ allergies(List&amp;lt;String&amp;gt;): MedicalRecordEntityBuilder&lt;br/&gt;+ birthdate(String): MedicalRecordEntityBuilder&lt;br/&gt;+ build(): MedicalRecordEntity&lt;br/&gt;+ firstName(String): MedicalRecordEntityBuilder&lt;br/&gt;+ lastName(String): MedicalRecordEntityBuilder&lt;br/&gt;+ medications(List&amp;lt;String&amp;gt;): MedicalRecordEntityBuilder&lt;br/&gt;+ toString(): String&lt;/p&gt;" style="verticalAlign=top;align=left;overflow=fill;fontSize=14;fontFamily=Helvetica;html=1;rounded=0;shadow=0;comic=0;labelBackgroundColor=none;strokeWidth=1;" vertex="1" parent="1">
          <mxGeometry x="1696" y="923" width="383" height="232" as="geometry" />
        </mxCell>
        <mxCell id="node19" value="&lt;p style=&quot;margin:0px;margin-top:4px;text-align:center;&quot;&gt;&lt;i&gt;&amp;lt;&amp;lt;interface&amp;gt;&amp;gt;&lt;/i&gt;&lt;br/&gt;&lt;b&gt;MedicalRecordRepository&lt;/b&gt;&lt;/p&gt;&lt;hr size=&quot;1&quot;/&gt;&lt;p style=&quot;margin:0 0 0 4px;line-height:1.6;&quot;&gt;+ delete(String, String): boolean&lt;br/&gt;+ findAll(): List&amp;lt;MedicalRecordDto&amp;gt;&lt;br/&gt;+ findMedicalRecordByName(String, String): MedicalRecordDto&lt;br/&gt;+ findMedicalRecordsByPersons(List&amp;lt;PersonDto&amp;gt;): List&amp;lt;MedicalRecordDto&amp;gt;&lt;br/&gt;+ save(MedicalRecordDto): MedicalRecordDto&lt;br/&gt;+ update(MedicalRecordDto): MedicalRecordDto&lt;/p&gt;" style="verticalAlign=top;align=left;overflow=fill;fontSize=14;fontFamily=Helvetica;html=1;rounded=0;shadow=0;comic=0;labelBackgroundColor=none;strokeWidth=1;" vertex="1" parent="1">
          <mxGeometry x="1134" y="1468" width="507" height="183" as="geometry" />
        </mxCell>
        <mxCell id="node15" value="&lt;p style=&quot;margin:0px;margin-top:4px;text-align:center;&quot;&gt;&lt;b&gt;MedicalRecordRepositoryImpl&lt;/b&gt;&lt;/p&gt;&lt;hr size=&quot;1&quot;/&gt;&lt;p style=&quot;margin:0 0 0 4px;line-height:1.6;&quot;&gt;+ MedicalRecordRepositoryImpl(MedicalRecordMapper): &lt;/p&gt;&lt;hr size=&quot;1&quot;/&gt;&lt;p style=&quot;margin:0 0 0 4px;line-height:1.6;&quot;&gt;+ delete(String, String): boolean&lt;br/&gt;+ findAll(): List&amp;lt;MedicalRecordDto&amp;gt;&lt;br/&gt;+ findMedicalRecordByName(String, String): MedicalRecordDto&lt;br/&gt;+ findMedicalRecordsByPersons(List&amp;lt;PersonDto&amp;gt;): List&amp;lt;MedicalRecordDto&amp;gt;&lt;br/&gt;+ save(MedicalRecordDto): MedicalRecordDto&lt;br/&gt;+ update(MedicalRecordDto): MedicalRecordDto&lt;/p&gt;" style="verticalAlign=top;align=left;overflow=fill;fontSize=14;fontFamily=Helvetica;html=1;rounded=0;shadow=0;comic=0;labelBackgroundColor=none;strokeWidth=1;" vertex="1" parent="1">
          <mxGeometry x="51" y="1567" width="507" height="208" as="geometry" />
        </mxCell>
        <mxCell id="node17" value="&lt;p style=&quot;margin:0px;margin-top:4px;text-align:center;&quot;&gt;&lt;i&gt;&amp;lt;&amp;lt;interface&amp;gt;&amp;gt;&lt;/i&gt;&lt;br/&gt;&lt;b&gt;MedicalRecordService&lt;/b&gt;&lt;/p&gt;&lt;hr size=&quot;1&quot;/&gt;&lt;p style=&quot;margin:0 0 0 4px;line-height:1.6;&quot;&gt;+ delete(String, String): GenericResponseDto&lt;br/&gt;+ findAll(): List&amp;lt;MedicalRecordDto&amp;gt;&lt;br/&gt;+ save(MedicalRecordDto): MedicalRecordDto&lt;br/&gt;+ update(MedicalRecordDto): MedicalRecordDto&lt;/p&gt;" style="verticalAlign=top;align=left;overflow=fill;fontSize=14;fontFamily=Helvetica;html=1;rounded=0;shadow=0;comic=0;labelBackgroundColor=none;strokeWidth=1;" vertex="1" parent="1">
          <mxGeometry x="781" y="1692" width="333" height="169" as="geometry" />
        </mxCell>
        <mxCell id="node8" value="&lt;p style=&quot;margin:0px;margin-top:4px;text-align:center;&quot;&gt;&lt;b&gt;MedicalRecordServiceImpl&lt;/b&gt;&lt;/p&gt;&lt;hr size=&quot;1&quot;/&gt;&lt;p style=&quot;margin:0 0 0 4px;line-height:1.6;&quot;&gt;+ MedicalRecordServiceImpl(MedicalRecordRepository): &lt;/p&gt;&lt;hr size=&quot;1&quot;/&gt;&lt;p style=&quot;margin:0 0 0 4px;line-height:1.6;&quot;&gt;+ delete(String, String): GenericResponseDto&lt;br/&gt;+ findAll(): List&amp;lt;MedicalRecordDto&amp;gt;&lt;br/&gt;+ save(MedicalRecordDto): MedicalRecordDto&lt;br/&gt;+ update(MedicalRecordDto): MedicalRecordDto&lt;/p&gt;" style="verticalAlign=top;align=left;overflow=fill;fontSize=14;fontFamily=Helvetica;html=1;rounded=0;shadow=0;comic=0;labelBackgroundColor=none;strokeWidth=1;" vertex="1" parent="1">
          <mxGeometry x="-585" y="1439" width="384" height="160" as="geometry" />
        </mxCell>
        <mxCell id="node23" value="&lt;p style=&quot;margin:0px;margin-top:4px;text-align:center;&quot;&gt;&lt;b&gt;PersonController&lt;/b&gt;&lt;/p&gt;&lt;hr size=&quot;1&quot;/&gt;&lt;p style=&quot;margin:0 0 0 4px;line-height:1.6;&quot;&gt;+ PersonController(PersonService): &lt;/p&gt;&lt;hr size=&quot;1&quot;/&gt;&lt;p style=&quot;margin:0 0 0 4px;line-height:1.6;&quot;&gt;+ createPerson(PersonDto): ResponseEntity&amp;lt;PersonDto&amp;gt;&lt;br/&gt;+ deletePerson(String, String): ResponseEntity&amp;lt;GenericResponseDto&amp;gt;&lt;br/&gt;+ updatePerson(PersonDto): ResponseEntity&amp;lt;PersonLiteDto&amp;gt;&lt;/p&gt;&lt;hr size=&quot;1&quot;/&gt;&lt;p style=&quot;margin:0 0 0 4px;line-height:1.6;&quot;&gt; persons: ResponseEntity&amp;lt;List&amp;lt;PersonDto&amp;gt;&amp;gt;&lt;/p&gt;" style="verticalAlign=top;align=left;overflow=fill;fontSize=14;fontFamily=Helvetica;html=1;rounded=0;shadow=0;comic=0;labelBackgroundColor=none;strokeWidth=1;" vertex="1" parent="1">
          <mxGeometry x="74" y="-101" width="467" height="161" as="geometry" />
        </mxCell>
        <mxCell id="node20" value="&lt;p style=&quot;margin:0px;margin-top:4px;text-align:center;&quot;&gt;&lt;b&gt;PersonEntity&lt;/b&gt;&lt;/p&gt;&lt;hr size=&quot;1&quot;/&gt;&lt;p style=&quot;margin:0 0 0 4px;line-height:1.6;&quot;&gt;~ PersonEntity(String, String, String, String, String, String, String): &lt;/p&gt;&lt;hr size=&quot;1&quot;/&gt;&lt;p style=&quot;margin:0 0 0 4px;line-height:1.6;&quot;&gt;- address: String&lt;br/&gt;- city: String&lt;br/&gt;- email: String&lt;br/&gt;- firstName: String&lt;br/&gt;- lastName: String&lt;br/&gt;- phone: String&lt;br/&gt;- zip: String&lt;/p&gt;&lt;hr size=&quot;1&quot;/&gt;&lt;p style=&quot;margin:0 0 0 4px;line-height:1.6;&quot;&gt;+ builder(): PersonEntityBuilder&lt;/p&gt;&lt;hr size=&quot;1&quot;/&gt;&lt;p style=&quot;margin:0 0 0 4px;line-height:1.6;&quot;&gt; address: String&lt;br/&gt; city: String&lt;br/&gt; email: String&lt;br/&gt; firstName: String&lt;br/&gt; lastName: String&lt;br/&gt; phone: String&lt;br/&gt; zip: String&lt;/p&gt;" style="verticalAlign=top;align=left;overflow=fill;fontSize=14;fontFamily=Helvetica;html=1;rounded=0;shadow=0;comic=0;labelBackgroundColor=none;strokeWidth=1;" vertex="1" parent="1">
          <mxGeometry x="2653" y="1426" width="427" height="448" as="geometry" />
        </mxCell>
        <mxCell id="node7" value="&lt;p style=&quot;margin:0px;margin-top:4px;text-align:center;&quot;&gt;&lt;b&gt;PersonEntityBuilder&lt;/b&gt;&lt;/p&gt;&lt;hr size=&quot;1&quot;/&gt;&lt;p style=&quot;margin:0 0 0 4px;line-height:1.6;&quot;&gt;~ PersonEntityBuilder(): &lt;/p&gt;&lt;hr size=&quot;1&quot;/&gt;&lt;p style=&quot;margin:0 0 0 4px;line-height:1.6;&quot;&gt;+ address(String): PersonEntityBuilder&lt;br/&gt;+ build(): PersonEntity&lt;br/&gt;+ city(String): PersonEntityBuilder&lt;br/&gt;+ email(String): PersonEntityBuilder&lt;br/&gt;+ firstName(String): PersonEntityBuilder&lt;br/&gt;+ lastName(String): PersonEntityBuilder&lt;br/&gt;+ phone(String): PersonEntityBuilder&lt;br/&gt;+ toString(): String&lt;br/&gt;+ zip(String): PersonEntityBuilder&lt;/p&gt;" style="verticalAlign=top;align=left;overflow=fill;fontSize=14;fontFamily=Helvetica;html=1;rounded=0;shadow=0;comic=0;labelBackgroundColor=none;strokeWidth=1;" vertex="1" parent="1">
          <mxGeometry x="1660" y="1719" width="280" height="280" as="geometry" />
        </mxCell>
        <mxCell id="node11" value="&lt;p style=&quot;margin:0px;margin-top:4px;text-align:center;&quot;&gt;&lt;b&gt;PersonInfoController&lt;/b&gt;&lt;/p&gt;&lt;hr size=&quot;1&quot;/&gt;&lt;p style=&quot;margin:0 0 0 4px;line-height:1.6;&quot;&gt;+ PersonInfoController(PersonService, PersonMapper): &lt;/p&gt;&lt;hr size=&quot;1&quot;/&gt;&lt;p style=&quot;margin:0 0 0 4px;line-height:1.6;&quot;&gt;+ findPersonInfos(String, String): ResponseEntity&amp;lt;PersonWithoutPhoneDto&amp;gt;&lt;/p&gt;" style="verticalAlign=top;align=left;overflow=fill;fontSize=14;fontFamily=Helvetica;html=1;rounded=0;shadow=0;comic=0;labelBackgroundColor=none;strokeWidth=1;" vertex="1" parent="1">
          <mxGeometry x="-645" y="35" width="504" height="95" as="geometry" />
        </mxCell>
        <mxCell id="node6" value="&lt;p style=&quot;margin:0px;margin-top:4px;text-align:center;&quot;&gt;&lt;i&gt;&amp;lt;&amp;lt;interface&amp;gt;&amp;gt;&lt;/i&gt;&lt;br/&gt;&lt;b&gt;PersonRepository&lt;/b&gt;&lt;/p&gt;&lt;hr size=&quot;1&quot;/&gt;&lt;p style=&quot;margin:0 0 0 4px;line-height:1.6;&quot;&gt;+ delete(String, String): boolean&lt;br/&gt;+ findAll(): List&amp;lt;PersonDto&amp;gt;&lt;br/&gt;+ findEmailsByCity(String): TreeSet&amp;lt;String&amp;gt;&lt;br/&gt;+ findPersonByName(String, String): PersonDto&lt;br/&gt;+ findPersonsByAddress(String): List&amp;lt;PersonDto&amp;gt;&lt;br/&gt;+ findPersonsByStationNumber(int): PersonsWithAgeRepartitionDto&lt;br/&gt;+ findPersonsPhoneNumbersByAddresses(List&amp;lt;String&amp;gt;): TreeSet&amp;lt;String&amp;gt;&lt;br/&gt;+ save(PersonDto): PersonDto&lt;br/&gt;+ update(PersonDto): PersonLiteDto&lt;/p&gt;" style="verticalAlign=top;align=left;overflow=fill;fontSize=14;fontFamily=Helvetica;html=1;rounded=0;shadow=0;comic=0;labelBackgroundColor=none;strokeWidth=1;" vertex="1" parent="1">
          <mxGeometry x="1142" y="1012" width="490" height="255" as="geometry" />
        </mxCell>
        <mxCell id="node9" value="&lt;p style=&quot;margin:0px;margin-top:4px;text-align:center;&quot;&gt;&lt;b&gt;PersonRepositoryImpl&lt;/b&gt;&lt;/p&gt;&lt;hr size=&quot;1&quot;/&gt;&lt;p style=&quot;margin:0 0 0 4px;line-height:1.6;&quot;&gt;+ PersonRepositoryImpl(PersonMapper): &lt;/p&gt;&lt;hr size=&quot;1&quot;/&gt;&lt;p style=&quot;margin:0 0 0 4px;line-height:1.6;&quot;&gt;+ delete(String, String): boolean&lt;br/&gt;+ findAll(): List&amp;lt;PersonDto&amp;gt;&lt;br/&gt;+ findEmailsByCity(String): TreeSet&amp;lt;String&amp;gt;&lt;br/&gt;+ findPersonByName(String, String): PersonDto&lt;br/&gt;+ findPersonsByAddress(String): List&amp;lt;PersonDto&amp;gt;&lt;br/&gt;+ findPersonsByStationNumber(int): PersonsWithAgeRepartitionDto&lt;br/&gt;+ findPersonsPhoneNumbersByAddresses(List&amp;lt;String&amp;gt;): TreeSet&amp;lt;String&amp;gt;&lt;br/&gt;+ save(PersonDto): PersonDto&lt;br/&gt;+ update(PersonDto): PersonLiteDto&lt;/p&gt;" style="verticalAlign=top;align=left;overflow=fill;fontSize=14;fontFamily=Helvetica;html=1;rounded=0;shadow=0;comic=0;labelBackgroundColor=none;strokeWidth=1;" vertex="1" parent="1">
          <mxGeometry x="62" y="819" width="490" height="280" as="geometry" />
        </mxCell>
        <mxCell id="node16" value="&lt;p style=&quot;margin:0px;margin-top:4px;text-align:center;&quot;&gt;&lt;i&gt;&amp;lt;&amp;lt;interface&amp;gt;&amp;gt;&lt;/i&gt;&lt;br/&gt;&lt;b&gt;PersonService&lt;/b&gt;&lt;/p&gt;&lt;hr size=&quot;1&quot;/&gt;&lt;p style=&quot;margin:0 0 0 4px;line-height:1.6;&quot;&gt;+ delete(String, String): GenericResponseDto&lt;br/&gt;+ findAll(): List&amp;lt;PersonDto&amp;gt;&lt;br/&gt;+ findChildrenByAddress(String): List&amp;lt;ChildDto&amp;gt;&lt;br/&gt;+ findPerson(String, String): PersonExtendedDto&lt;br/&gt;+ findPersons(String): List&amp;lt;PersonExtendedDto&amp;gt;&lt;br/&gt;+ findPersonsCoveredByFireStation(int): PersonsWithAgeRepartitionDto&lt;br/&gt;+ findPersonsEmail(String): TreeSet&amp;lt;String&amp;gt;&lt;br/&gt;+ findPersonsPhoneNumberByStation(int): TreeSet&amp;lt;String&amp;gt;&lt;br/&gt;+ save(PersonDto): PersonDto&lt;br/&gt;+ update(PersonDto): PersonLiteDto&lt;/p&gt;" style="verticalAlign=top;align=left;overflow=fill;fontSize=14;fontFamily=Helvetica;html=1;rounded=0;shadow=0;comic=0;labelBackgroundColor=none;strokeWidth=1;" vertex="1" parent="1">
          <mxGeometry x="1149" y="420" width="477" height="279" as="geometry" />
        </mxCell>
        <mxCell id="node10" value="&lt;p style=&quot;margin:0px;margin-top:4px;text-align:center;&quot;&gt;&lt;b&gt;PersonServiceImpl&lt;/b&gt;&lt;/p&gt;&lt;hr size=&quot;1&quot;/&gt;&lt;p style=&quot;margin:0 0 0 4px;line-height:1.6;&quot;&gt;+ PersonServiceImpl(PersonRepository, FireStationRepository, MedicalRecordRepository, PersonMapper, MedicalRecordMapper): &lt;/p&gt;&lt;hr size=&quot;1&quot;/&gt;&lt;p style=&quot;margin:0 0 0 4px;line-height:1.6;&quot;&gt;+ calculateAge(MedicalRecordDto): long&lt;br/&gt;+ delete(String, String): GenericResponseDto&lt;br/&gt;+ findAll(): List&amp;lt;PersonDto&amp;gt;&lt;br/&gt;+ findChildrenByAddress(String): List&amp;lt;ChildDto&amp;gt;&lt;br/&gt;+ findMedicalRecordByPerson(String, String, List&amp;lt;MedicalRecordDto&amp;gt;): MedicalRecordDto&lt;br/&gt;+ findPerson(String, String): PersonExtendedDto&lt;br/&gt;+ findPersons(String): List&amp;lt;PersonExtendedDto&amp;gt;&lt;br/&gt;+ findPersonsCoveredByFireStation(int): PersonsWithAgeRepartitionDto&lt;br/&gt;+ findPersonsEmail(String): TreeSet&amp;lt;String&amp;gt;&lt;br/&gt;+ findPersonsPhoneNumberByStation(int): TreeSet&amp;lt;String&amp;gt;&lt;br/&gt;+ save(PersonDto): PersonDto&lt;br/&gt;+ update(PersonDto): PersonLiteDto&lt;/p&gt;" style="verticalAlign=top;align=left;overflow=fill;fontSize=14;fontFamily=Helvetica;html=1;rounded=0;shadow=0;comic=0;labelBackgroundColor=none;strokeWidth=1;" vertex="1" parent="1">
          <mxGeometry x="-1060" y="530" width="866" height="352" as="geometry" />
        </mxCell>
        <mxCell id="node26" value="&lt;p style=&quot;margin:0px;margin-top:4px;text-align:center;&quot;&gt;&lt;b&gt;PhoneAlertController&lt;/b&gt;&lt;/p&gt;&lt;hr size=&quot;1&quot;/&gt;&lt;p style=&quot;margin:0 0 0 4px;line-height:1.6;&quot;&gt;+ PhoneAlertController(PersonService): &lt;/p&gt;&lt;hr size=&quot;1&quot;/&gt;&lt;p style=&quot;margin:0 0 0 4px;line-height:1.6;&quot;&gt;+ findPersonsPhoneNumbers(int): ResponseEntity&amp;lt;TreeSet&amp;lt;String&amp;gt;&amp;gt;&lt;/p&gt;" style="verticalAlign=top;align=left;overflow=fill;fontSize=14;fontFamily=Helvetica;html=1;rounded=0;shadow=0;comic=0;labelBackgroundColor=none;strokeWidth=1;" vertex="1" parent="1">
          <mxGeometry x="-624" y="-165" width="462" height="95" as="geometry" />
        </mxCell>
        <mxCell id="edge18" value="" style="html=1;rounded=1;edgeStyle=orthogonalEdgeStyle;dashed=0;startArrow=diamondThinstartSize=12;endArrow=openThin;endSize=12;strokeColor=#595959;exitX=1.000;exitY=0.500;exitDx=0;exitDy=0;entryX=0.000;entryY=0.250;entryDx=0;entryDy=0;" edge="1" parent="1" source="node25" target="node16">
          <mxGeometry width="50" height="50" relative="1" as="geometry">
            <Array as="points">
              <mxPoint x="1107" y="139" />
              <mxPoint x="1107" y="379" />
              <mxPoint x="1127" y="379" />
              <mxPoint x="1127" y="489" />
            </Array>
          </mxGeometry>
        </mxCell>
        <mxCell id="label112" value="1" style="edgeLabel;resizable=0;html=1;align=left;verticalAlign=top;strokeColor=default;" vertex="1" connectable="0" parent="edge18">
          <mxGeometry x="541" y="110" as="geometry" />
        </mxCell>
        <mxCell id="edge19" value="" style="html=1;rounded=1;edgeStyle=orthogonalEdgeStyle;dashed=0;startArrow=diamondThinstartSize=12;endArrow=openThin;endSize=12;strokeColor=#595959;exitX=1.000;exitY=0.500;exitDx=0;exitDy=0;entryX=0.000;entryY=0.250;entryDx=0;entryDy=0;" edge="1" parent="1" source="node18" target="node16">
          <mxGeometry width="50" height="50" relative="1" as="geometry">
            <Array as="points">
              <mxPoint x="1107" y="199" />
              <mxPoint x="1107" y="379" />
              <mxPoint x="1127" y="379" />
              <mxPoint x="1127" y="489" />
            </Array>
          </mxGeometry>
        </mxCell>
        <mxCell id="label118" value="1" style="edgeLabel;resizable=0;html=1;align=left;verticalAlign=top;strokeColor=default;" vertex="1" connectable="0" parent="edge19">
          <mxGeometry x="-199" y="170" as="geometry" />
        </mxCell>
        <mxCell id="edge9" value="" style="html=1;rounded=1;edgeStyle=orthogonalEdgeStyle;dashed=0;startArrow=diamondThinstartSize=12;endArrow=openThin;endSize=12;strokeColor=#595959;exitX=1.000;exitY=0.500;exitDx=0;exitDy=0;entryX=0.000;entryY=0.250;entryDx=0;entryDy=0;" edge="1" parent="1" source="node13" target="node21">
          <mxGeometry width="50" height="50" relative="1" as="geometry">
            <Array as="points">
              <mxPoint x="2607" y="1299" />
              <mxPoint x="2607" y="1313" />
            </Array>
          </mxGeometry>
        </mxCell>
        <mxCell id="label58" value="*" style="edgeLabel;resizable=0;html=1;align=left;verticalAlign=top;strokeColor=default;" vertex="1" connectable="0" parent="edge9">
          <mxGeometry x="3120" y="1290" as="geometry" />
        </mxCell>
        <mxCell id="edge23" value="" style="html=1;rounded=1;edgeStyle=orthogonalEdgeStyle;dashed=0;startArrow=diamondThinstartSize=12;endArrow=openThin;endSize=12;strokeColor=#595959;exitX=1.000;exitY=0.500;exitDx=0;exitDy=0;entryX=0.000;entryY=0.750;entryDx=0;entryDy=0;" edge="1" parent="1" source="node13" target="node1">
          <mxGeometry width="50" height="50" relative="1" as="geometry">
            <Array as="points">
              <mxPoint x="2607" y="1299" />
              <mxPoint x="2607" y="1202" />
            </Array>
          </mxGeometry>
        </mxCell>
        <mxCell id="label142" value="*" style="edgeLabel;resizable=0;html=1;align=left;verticalAlign=top;strokeColor=default;" vertex="1" connectable="0" parent="edge23">
          <mxGeometry x="2620" y="1179" as="geometry" />
        </mxCell>
        <mxCell id="edge22" value="" style="html=1;rounded=1;edgeStyle=orthogonalEdgeStyle;dashed=0;startArrow=diamondThinstartSize=12;endArrow=openThin;endSize=12;strokeColor=#595959;exitX=1.000;exitY=0.500;exitDx=0;exitDy=0;" edge="1" parent="1" source="node13" target="node20">
          <mxGeometry width="50" height="50" relative="1" as="geometry">
            <Array as="points">
              <mxPoint x="2441" y="1299" />
              <mxPoint x="2567" y="1299" />
              <mxPoint x="2567" y="1533" />
            </Array>
          </mxGeometry>
        </mxCell>
        <mxCell id="label132" value="1" style="edgeLabel;resizable=0;html=1;align=left;verticalAlign=top;strokeColor=default;" vertex="1" connectable="0" parent="edge22">
          <mxGeometry x="2456" y="1270" as="geometry" />
        </mxCell>
        <mxCell id="edge10" value="" style="html=1;rounded=1;edgeStyle=orthogonalEdgeStyle;dashed=0;startArrow=diamondThinstartSize=12;endArrow=openThin;endSize=12;strokeColor=#595959;exitX=1.000;exitY=0.500;exitDx=0;exitDy=0;entryX=0.000;entryY=0.250;entryDx=0;entryDy=0;" edge="1" parent="1" source="node14" target="node27">
          <mxGeometry width="50" height="50" relative="1" as="geometry">
            <Array as="points">
              <mxPoint x="767" y="499" />
              <mxPoint x="767" y="913" />
            </Array>
          </mxGeometry>
        </mxCell>
        <mxCell id="label64" value="1" style="edgeLabel;resizable=0;html=1;align=left;verticalAlign=top;strokeColor=default;" vertex="1" connectable="0" parent="edge10">
          <mxGeometry x="650" y="472" as="geometry" />
        </mxCell>
        <mxCell id="edge21" value="" style="html=1;rounded=1;edgeStyle=orthogonalEdgeStyle;dashed=0;startArrow=diamondThinstartSize=12;endArrow=openThin;endSize=12;strokeColor=#595959;exitX=1.000;exitY=0.500;exitDx=0;exitDy=0;entryX=0.000;entryY=0.250;entryDx=0;entryDy=0;" edge="1" parent="1" source="node14" target="node16">
          <mxGeometry width="50" height="50" relative="1" as="geometry">
            <Array as="points">
              <mxPoint x="635" y="460" />
              <mxPoint x="1127" y="460" />
              <mxPoint x="1127" y="490" />
            </Array>
          </mxGeometry>
        </mxCell>
        <mxCell id="edge15" value="" style="html=1;rounded=1;edgeStyle=orthogonalEdgeStyle;dashed=0;startArrow=diamondThinstartSize=12;endArrow=openThin;endSize=12;strokeColor=#595959;exitX=1.000;exitY=0.500;exitDx=0;exitDy=0;entryX=0.000;entryY=0.250;entryDx=0;entryDy=0;" edge="1" parent="1" source="node0" target="node27">
          <mxGeometry width="50" height="50" relative="1" as="geometry">
            <Array as="points">
              <mxPoint x="750" y="380" />
              <mxPoint x="750" y="499" />
              <mxPoint x="767" y="499" />
              <mxPoint x="767" y="914" />
            </Array>
          </mxGeometry>
        </mxCell>
        <mxCell id="label90" value="1" style="edgeLabel;resizable=0;html=1;align=left;verticalAlign=top;strokeColor=default;" vertex="1" connectable="0" parent="edge15">
          <mxGeometry x="750" y="880" as="geometry" />
        </mxCell>
        <mxCell id="label94" value="1" style="edgeLabel;resizable=0;html=1;align=left;verticalAlign=top;strokeColor=default;" vertex="1" connectable="0" parent="edge15">
          <mxGeometry x="-93" y="350" as="geometry" />
        </mxCell>
        <mxCell id="edge20" value="" style="html=1;rounded=1;edgeStyle=orthogonalEdgeStyle;dashed=0;startArrow=diamondThinstartSize=12;endArrow=openThin;endSize=12;strokeColor=#595959;exitX=1.000;exitY=0.500;exitDx=0;exitDy=0;entryX=0.000;entryY=0.250;entryDx=0;entryDy=0;" edge="1" parent="1" source="node0" target="node16">
          <mxGeometry width="50" height="50" relative="1" as="geometry">
            <Array as="points">
              <mxPoint x="1127" y="379" />
              <mxPoint x="1127" y="489" />
            </Array>
          </mxGeometry>
        </mxCell>
        <mxCell id="edge4" value="" style="html=1;rounded=1;edgeStyle=orthogonalEdgeStyle;dashed=0;startArrow=circlePlus;startFill=0;endArrow=none;strokeColor=#820000;exitX=1.000;exitY=0.500;exitDx=0;exitDy=0;entryX=0.000;entryY=0.750;entryDx=0;entryDy=0;" edge="1" parent="1" source="node12" target="node21">
          <mxGeometry width="50" height="50" relative="1" as="geometry">
            <Array as="points">
              <mxPoint x="1954" y="1370" />
              <mxPoint x="3120" y="1370" />
              <mxPoint x="3120" y="1407" />
            </Array>
          </mxGeometry>
        </mxCell>
        <mxCell id="edge5" value="" style="html=1;rounded=1;edgeStyle=orthogonalEdgeStyle;dashed=1;startArrow=none;endArrow=block;endSize=12;strokeColor=#008200;exitX=1.000;exitY=0.500;exitDx=0;exitDy=0;entryX=0.000;entryY=0.750;entryDx=0;entryDy=0;" edge="1" parent="1" source="node22" target="node4">
          <mxGeometry width="50" height="50" relative="1" as="geometry">
            <Array as="points">
              <mxPoint x="796" y="1359" />
            </Array>
          </mxGeometry>
        </mxCell>
        <mxCell id="edge11" value="" style="html=1;rounded=1;edgeStyle=orthogonalEdgeStyle;dashed=0;startArrow=diamondThinstartSize=12;endArrow=openThin;endSize=12;strokeColor=#595959;exitX=1.000;exitY=0.750;exitDx=0;exitDy=0;entryX=0.000;entryY=0.250;entryDx=0;entryDy=0;" edge="1" parent="1" source="node3" target="node4">
          <mxGeometry width="50" height="50" relative="1" as="geometry">
            <Array as="points">
              <mxPoint x="-226" y="1230" />
              <mxPoint x="670" y="1230" />
              <mxPoint x="670" y="1274" />
            </Array>
          </mxGeometry>
        </mxCell>
        <mxCell id="label66" value="1" style="edgeLabel;resizable=0;html=1;align=left;verticalAlign=top;strokeColor=default;" vertex="1" connectable="0" parent="edge11">
          <mxGeometry x="760" y="1250" as="geometry" />
        </mxCell>
        <mxCell id="label70" value="1" style="edgeLabel;resizable=0;html=1;align=left;verticalAlign=top;strokeColor=default;" vertex="1" connectable="0" parent="edge11">
          <mxGeometry x="-221" y="1200" as="geometry" />
        </mxCell>
        <mxCell id="label71" value="" style="edgeLabel;resizable=0;html=1;align=left;verticalAlign=top;strokeColor=default;" vertex="1" connectable="0" parent="edge11">
          <mxGeometry x="740" y="1280" as="geometry" />
        </mxCell>
        <mxCell id="edge7" value="" style="html=1;rounded=1;edgeStyle=orthogonalEdgeStyle;dashed=1;startArrow=none;endArrow=block;endSize=12;strokeColor=#008200;exitX=1.000;exitY=0.250;exitDx=0;exitDy=0;entryX=0.000;entryY=0.750;entryDx=0;entryDy=0;" edge="1" parent="1" source="node3" target="node27">
          <mxGeometry width="50" height="50" relative="1" as="geometry">
            <Array as="points">
              <mxPoint x="587" y="1127" />
              <mxPoint x="587" y="1005" />
            </Array>
          </mxGeometry>
        </mxCell>
        <mxCell id="edge14" value="" style="html=1;rounded=1;edgeStyle=orthogonalEdgeStyle;dashed=0;startArrow=diamondThinstartSize=12;endArrow=openThin;endSize=12;strokeColor=#595959;exitX=1.000;exitY=0.500;exitDx=0;exitDy=0;entryX=0.000;entryY=0.250;entryDx=0;entryDy=0;" edge="1" parent="1" source="node5" target="node27">
          <mxGeometry width="50" height="50" relative="1" as="geometry">
            <Array as="points">
              <mxPoint x="678" y="259" />
              <mxPoint x="750" y="259" />
              <mxPoint x="750" y="499" />
              <mxPoint x="767" y="499" />
              <mxPoint x="767" y="914" />
            </Array>
          </mxGeometry>
        </mxCell>
        <mxCell id="label88" value="1" style="edgeLabel;resizable=0;html=1;align=left;verticalAlign=top;strokeColor=default;" vertex="1" connectable="0" parent="edge14">
          <mxGeometry x="690" y="230" as="geometry" />
        </mxCell>
        <mxCell id="edge29" value="" style="html=1;rounded=1;edgeStyle=orthogonalEdgeStyle;dashed=0;startArrow=diamondThinstartSize=12;endArrow=openThin;endSize=12;strokeColor=#595959;exitX=1.000;exitY=0.500;exitDx=0;exitDy=0;entryX=0.000;entryY=0.250;entryDx=0;entryDy=0;" edge="1" parent="1" source="node5" target="node16">
          <mxGeometry width="50" height="50" relative="1" as="geometry">
            <Array as="points">
              <mxPoint x="678" y="259" />
              <mxPoint x="1107" y="259" />
              <mxPoint x="1107" y="379" />
              <mxPoint x="1127" y="379" />
              <mxPoint x="1127" y="490" />
            </Array>
          </mxGeometry>
        </mxCell>
        <mxCell id="edge26" value="" style="html=1;rounded=1;edgeStyle=orthogonalEdgeStyle;dashed=0;startArrow=diamondThinstartSize=12;endArrow=openThin;endSize=12;strokeColor=#595959;exitX=1.000;exitY=0.500;exitDx=0;exitDy=0;" edge="1" parent="1" source="node28">
          <mxGeometry width="50" height="50" relative="1" as="geometry">
            <Array as="points">
              <mxPoint x="2539" y="1533" />
              <mxPoint x="2627" y="1533" />
            </Array>
            <mxPoint x="2653" y="1533" as="targetPoint" />
          </mxGeometry>
        </mxCell>
        <mxCell id="label156" value="1" style="edgeLabel;resizable=0;html=1;align=left;verticalAlign=top;strokeColor=default;" vertex="1" connectable="0" parent="edge26">
          <mxGeometry x="2544" y="1510" as="geometry" />
        </mxCell>
        <mxCell id="label160" value="*" style="edgeLabel;resizable=0;html=1;align=left;verticalAlign=top;strokeColor=default;" vertex="1" connectable="0" parent="edge26">
          <mxGeometry x="2630" y="1510" as="geometry" />
        </mxCell>
        <mxCell id="edge17" value="" style="html=1;rounded=1;edgeStyle=orthogonalEdgeStyle;dashed=0;startArrow=diamondThinstartSize=12;endArrow=openThin;endSize=12;strokeColor=#595959;exitX=1.000;exitY=0.500;exitDx=0;exitDy=0;" edge="1" parent="1" source="node24" target="node17">
          <mxGeometry width="50" height="50" relative="1" as="geometry">
            <Array as="points">
              <mxPoint x="560" y="1799" />
              <mxPoint x="560" y="1799" />
            </Array>
          </mxGeometry>
        </mxCell>
        <mxCell id="label102" value="1" style="edgeLabel;resizable=0;html=1;align=left;verticalAlign=top;strokeColor=default;" vertex="1" connectable="0" parent="edge17">
          <mxGeometry x="740" y="1770" as="geometry" />
        </mxCell>
        <mxCell id="label106" value="1" style="edgeLabel;resizable=0;html=1;align=left;verticalAlign=top;strokeColor=default;" vertex="1" connectable="0" parent="edge17">
          <mxGeometry x="-119" y="1770" as="geometry" />
        </mxCell>
        <mxCell id="edge1" value="" style="html=1;rounded=1;edgeStyle=orthogonalEdgeStyle;dashed=0;startArrow=circlePlus;startFill=0;endArrow=none;strokeColor=#820000;exitX=1.000;exitY=0.500;exitDx=0;exitDy=0;entryX=0.000;entryY=0.250;entryDx=0;entryDy=0;" edge="1" parent="1">
          <mxGeometry width="50" height="50" relative="1" as="geometry">
            <Array as="points">
              <mxPoint x="2079" y="1040.75" />
              <mxPoint x="2645" y="1040.75" />
            </Array>
            <mxPoint x="2079" y="1039.75" as="sourcePoint" />
            <mxPoint x="2645" y="1037.25" as="targetPoint" />
          </mxGeometry>
        </mxCell>
        <mxCell id="edge6" value="" style="html=1;rounded=1;edgeStyle=orthogonalEdgeStyle;dashed=1;startArrow=none;endArrow=block;endSize=12;strokeColor=#008200;exitX=1.000;exitY=0.500;exitDx=0;exitDy=0;entryX=0.000;entryY=0.750;entryDx=0;entryDy=0;" edge="1" parent="1" source="node15" target="node19">
          <mxGeometry width="50" height="50" relative="1" as="geometry">
            <Array as="points">
              <mxPoint x="607" y="1679" />
              <mxPoint x="607" y="1605" />
            </Array>
          </mxGeometry>
        </mxCell>
        <mxCell id="edge13" value="" style="html=1;rounded=1;edgeStyle=orthogonalEdgeStyle;dashed=0;startArrow=diamondThinstartSize=12;endArrow=openThin;endSize=12;strokeColor=#595959;exitX=1.000;exitY=0.250;exitDx=0;exitDy=0;entryX=0.000;entryY=0.250;entryDx=0;entryDy=0;" edge="1" parent="1" source="node8" target="node19">
          <mxGeometry width="50" height="50" relative="1" as="geometry">
            <Array as="points">
              <mxPoint x="1107" y="1479" />
              <mxPoint x="1107" y="1513" />
            </Array>
          </mxGeometry>
        </mxCell>
        <mxCell id="label82" value="1" style="edgeLabel;resizable=0;html=1;align=left;verticalAlign=top;strokeColor=default;" vertex="1" connectable="0" parent="edge13">
          <mxGeometry x="-196" y="1450" as="geometry" />
        </mxCell>
        <mxCell id="edge2" value="" style="html=1;rounded=1;edgeStyle=orthogonalEdgeStyle;dashed=1;startArrow=none;endArrow=block;endSize=12;strokeColor=#008200;exitX=1.000;exitY=0.750;exitDx=0;exitDy=0;entryX=-0.001;entryY=0.216;entryDx=0;entryDy=0;entryPerimeter=0;" edge="1" parent="1" target="node17">
          <mxGeometry width="50" height="50" relative="1" as="geometry">
            <Array as="points">
              <mxPoint x="-203" y="1549" />
              <mxPoint x="585" y="1549" />
              <mxPoint x="585" y="1724" />
              <mxPoint x="779" y="1724" />
              <mxPoint x="779" y="1729" />
            </Array>
            <mxPoint x="-203" y="1558" as="sourcePoint" />
            <mxPoint x="781" y="1729" as="targetPoint" />
          </mxGeometry>
        </mxCell>
        <mxCell id="edge27" value="" style="html=1;rounded=1;edgeStyle=orthogonalEdgeStyle;dashed=0;startArrow=diamondThinstartSize=12;endArrow=openThin;endSize=12;strokeColor=#595959;exitX=1.000;exitY=0.500;exitDx=0;exitDy=0;entryX=0.000;entryY=0.250;entryDx=0;entryDy=0;" edge="1" parent="1" source="node23" target="node16">
          <mxGeometry width="50" height="50" relative="1" as="geometry">
            <Array as="points">
              <mxPoint x="1107" y="-21" />
              <mxPoint x="1107" y="379" />
              <mxPoint x="1127" y="379" />
              <mxPoint x="1127" y="489" />
            </Array>
          </mxGeometry>
        </mxCell>
        <mxCell id="label166" value="1" style="edgeLabel;resizable=0;html=1;align=left;verticalAlign=top;strokeColor=default;" vertex="1" connectable="0" parent="edge27">
          <mxGeometry x="552" y="-50" as="geometry" />
        </mxCell>
        <mxCell id="edge3" value="" style="html=1;rounded=1;edgeStyle=orthogonalEdgeStyle;dashed=0;startArrow=circlePlus;startFill=0;endArrow=none;strokeColor=#820000;exitX=1.000;exitY=0.500;exitDx=0;exitDy=0;entryX=0.000;entryY=0.750;entryDx=0;entryDy=0;" edge="1" parent="1" source="node7" target="node20">
          <mxGeometry width="50" height="50" relative="1" as="geometry">
            <Array as="points">
              <mxPoint x="1940" y="1850" />
              <mxPoint x="2250" y="1850" />
              <mxPoint x="2250" y="1745" />
            </Array>
          </mxGeometry>
        </mxCell>
        <mxCell id="edge24" value="" style="html=1;rounded=1;edgeStyle=orthogonalEdgeStyle;dashed=0;startArrow=diamondThinstartSize=12;endArrow=openThin;endSize=12;strokeColor=#595959;exitX=1.000;exitY=0.500;exitDx=0;exitDy=0;entryX=0.000;entryY=0.250;entryDx=0;entryDy=0;" edge="1" parent="1" source="node11" target="node16">
          <mxGeometry width="50" height="50" relative="1" as="geometry">
            <Array as="points">
              <mxPoint x="1107" y="79" />
              <mxPoint x="1107" y="379" />
              <mxPoint x="1127" y="379" />
              <mxPoint x="1127" y="489" />
            </Array>
          </mxGeometry>
        </mxCell>
        <mxCell id="label144" value="1" style="edgeLabel;resizable=0;html=1;align=left;verticalAlign=top;strokeColor=default;" vertex="1" connectable="0" parent="edge24">
          <mxGeometry x="1115" y="462" as="geometry" />
        </mxCell>
        <mxCell id="label148" value="1" style="edgeLabel;resizable=0;html=1;align=left;verticalAlign=top;strokeColor=default;" vertex="1" connectable="0" parent="edge24">
          <mxGeometry x="-136" y="50" as="geometry" />
        </mxCell>
        <mxCell id="edge0" value="" style="html=1;rounded=1;edgeStyle=orthogonalEdgeStyle;dashed=1;startArrow=none;endArrow=block;endSize=12;strokeColor=#008200;exitX=1.000;exitY=0.500;exitDx=0;exitDy=0;entryX=0.000;entryY=0.250;entryDx=0;entryDy=0;" edge="1" parent="1" source="node9" target="node6">
          <mxGeometry width="50" height="50" relative="1" as="geometry">
            <Array as="points">
              <mxPoint x="607" y="959" />
              <mxPoint x="607" y="1075" />
            </Array>
          </mxGeometry>
        </mxCell>
        <mxCell id="edge16" value="" style="html=1;rounded=1;edgeStyle=orthogonalEdgeStyle;dashed=0;startArrow=diamondThinstartSize=12;endArrow=openThin;endSize=12;strokeColor=#595959;exitX=1.000;exitY=0.750;exitDx=0;exitDy=0;entryX=0.000;entryY=0.250;entryDx=0;entryDy=0;" edge="1" parent="1" source="node10" target="node4">
          <mxGeometry width="50" height="50" relative="1" as="geometry">
            <Array as="points">
              <mxPoint x="-194" y="787" />
              <mxPoint x="567" y="787" />
              <mxPoint x="567" y="1199" />
              <mxPoint x="730" y="1199" />
              <mxPoint x="730" y="1274" />
            </Array>
          </mxGeometry>
        </mxCell>
        <mxCell id="label100" value="1" style="edgeLabel;resizable=0;html=1;align=left;verticalAlign=top;strokeColor=default;" vertex="1" connectable="0" parent="edge16">
          <mxGeometry x="-180" y="760" as="geometry" />
        </mxCell>
        <mxCell id="label101" value="" style="edgeLabel;resizable=0;html=1;align=left;verticalAlign=top;strokeColor=default;" vertex="1" connectable="0" parent="edge16">
          <mxGeometry x="760" y="1200" as="geometry" />
        </mxCell>
        <mxCell id="edge12" value="" style="html=1;rounded=1;edgeStyle=orthogonalEdgeStyle;dashed=0;startArrow=diamondThinstartSize=12;endArrow=openThin;endSize=12;strokeColor=#595959;exitX=1.000;exitY=0.750;exitDx=0;exitDy=0;entryX=0.000;entryY=0.250;entryDx=0;entryDy=0;" edge="1" parent="1" source="node10" target="node19">
          <mxGeometry width="50" height="50" relative="1" as="geometry">
            <Array as="points">
              <mxPoint x="-194" y="787" />
              <mxPoint x="567" y="787" />
              <mxPoint x="567" y="1199" />
              <mxPoint x="730" y="1199" />
              <mxPoint x="730" y="1479" />
              <mxPoint x="1107" y="1479" />
              <mxPoint x="1107" y="1514" />
            </Array>
          </mxGeometry>
        </mxCell>
        <mxCell id="label72" value="1" style="edgeLabel;resizable=0;html=1;align=left;verticalAlign=top;strokeColor=default;" vertex="1" connectable="0" parent="edge12">
          <mxGeometry x="1090" y="1495" as="geometry" />
        </mxCell>
        <mxCell id="edge25" value="" style="html=1;rounded=1;edgeStyle=orthogonalEdgeStyle;dashed=0;startArrow=diamondThinstartSize=12;endArrow=openThin;endSize=12;strokeColor=#595959;exitX=1.000;exitY=0.750;exitDx=0;exitDy=0;entryX=0.000;entryY=0.750;entryDx=0;entryDy=0;" edge="1" parent="1" source="node10" target="node6">
          <mxGeometry width="50" height="50" relative="1" as="geometry">
            <Array as="points">
              <mxPoint x="-194" y="787" />
              <mxPoint x="567" y="787" />
              <mxPoint x="567" y="1200" />
              <mxPoint x="1142" y="1200" />
            </Array>
          </mxGeometry>
        </mxCell>
        <mxCell id="label150" value="1" style="edgeLabel;resizable=0;html=1;align=left;verticalAlign=top;strokeColor=default;" vertex="1" connectable="0" parent="edge25">
          <mxGeometry x="1110" y="1170" as="geometry" />
        </mxCell>
        <mxCell id="label155" value="" style="edgeLabel;resizable=0;html=1;align=left;verticalAlign=top;strokeColor=default;" vertex="1" connectable="0" parent="edge25">
          <mxGeometry x="1050" y="1150" as="geometry" />
        </mxCell>
        <mxCell id="edge8" value="" style="html=1;rounded=1;edgeStyle=orthogonalEdgeStyle;dashed=1;startArrow=none;endArrow=block;endSize=12;strokeColor=#008200;exitX=1.000;exitY=0.250;exitDx=0;exitDy=0;entryX=0.000;entryY=0.750;entryDx=0;entryDy=0;" edge="1" parent="1" source="node10" target="node16">
          <mxGeometry width="50" height="50" relative="1" as="geometry">
            <Array as="points">
              <mxPoint x="-93" y="611" />
              <mxPoint x="-93" y="629" />
            </Array>
          </mxGeometry>
        </mxCell>
        <mxCell id="edge28" value="" style="html=1;rounded=1;edgeStyle=orthogonalEdgeStyle;dashed=0;startArrow=diamondThinstartSize=12;endArrow=openThin;endSize=12;strokeColor=#595959;exitX=1.000;exitY=0.500;exitDx=0;exitDy=0;entryX=0.000;entryY=0.250;entryDx=0;entryDy=0;" edge="1" parent="1" source="node26" target="node16">
          <mxGeometry width="50" height="50" relative="1" as="geometry">
            <Array as="points">
              <mxPoint x="-162" y="-121" />
              <mxPoint x="1107" y="-121" />
              <mxPoint x="1107" y="380" />
              <mxPoint x="1127" y="380" />
              <mxPoint x="1127" y="490" />
            </Array>
          </mxGeometry>
        </mxCell>
        <mxCell id="label172" value="1" style="edgeLabel;resizable=0;html=1;align=left;verticalAlign=top;strokeColor=default;" vertex="1" connectable="0" parent="edge28">
          <mxGeometry x="-157" y="-150" as="geometry" />
        </mxCell>
      </root>
    </mxGraphModel>
  </diagram>
</mxfile>
